<?xml version="1.0" standalone="no"?>
<!DOCTYPE svg PUBLIC "-//W3C//DTD SVG 20010904//EN"
 "http://www.w3.org/TR/2001/REC-SVG-20010904/DTD/svg10.dtd">
<svg version="1.0" xmlns="http://www.w3.org/2000/svg"
 width="3003.000000pt" height="2950.000000pt" viewBox="0 0 3003.000000 2950.000000"
 preserveAspectRatio="xMidYMid meet">
<metadata>
Created by potrace 1.16, written by Peter Selinger 2001-2019
</metadata>
<g transform="translate(0.000000,2950.000000) scale(0.100000,-0.100000)"
fill="#000000" stroke="none">
<path d="M8121 28881 c-13 -8 -13 -590 -2 -4426 7 -2429 10 -4419 8 -4422 -3
-2 -556 -29 -1228 -58 -673 -30 -2295 -102 -3604 -160 -1309 -58 -2408 -105
-2442 -105 l-63 0 0 -44 c0 -25 47 -897 105 -1938 57 -1041 150 -2723 206
-3738 56 -1015 105 -1849 110 -1855 5 -7 67 -7 180 -2 94 4 173 6 174 5 1 -2
153 -1958 336 -4346 184 -2389 336 -4347 339 -4350 3 -4 1207 -5 2675 -2 2662
5 2670 5 2670 25 0 20 -8 20 -2652 23 -2112 2 -2653 5 -2653 15 0 28 -661
8625 -666 8655 l-5 34 -180 -8 -179 -7 -1 39 c0 22 -58 1074 -128 2339 -70
1265 -127 2300 -127 2301 1 0 446 -4 990 -9 543 -4 994 -6 1002 -3 20 8 21
2088 1 2105 -10 7 -321 13 -1056 18 -803 6 -1043 11 -1049 20 -8 12 -46 663
-40 668 2 1 485 23 1073 49 4192 184 6250 277 6258 285 5 5 4 1828 -4 4425 -7
2429 -10 4418 -8 4420 6 5 14439 -50 14444 -55 2 -3 11 -3760 20 -8349 8
-4590 16 -8376 18 -8413 l2 -68 2332 -6 c2224 -6 2333 -5 2339 12 6 15 -26
11492 -43 15320 l-6 1490 874 -3 c481 -2 876 -5 878 -7 2 -2 -13 -703 -33
-1557 -45 -1951 -212 -9159 -401 -17295 -80 -3444 -145 -6303 -145 -6353 l0
-90 -1558 0 c-857 0 -2458 3 -3557 7 l-1997 6 4 74 5 74 -157 150 -157 151 -6
55 c-6 62 -17 79 -42 69 -15 -5 -16 -16 -11 -74 l7 -67 154 -150 155 -150 2
-90 3 -90 1485 -6 c1676 -7 5711 -12 5714 -7 2 2 28 1117 60 2478 68 2965 358
15516 456 19755 38 1661 70 3050 70 3087 0 62 -2 68 -22 73 -13 3 -4307 21
-9543 39 -5236 19 -9936 37 -10445 40 -546 3 -931 2 -939 -3z m19096 -115 c2
-2 53 -15752 53 -16365 l0 -414 -2287 7 c-1258 4 -2288 8 -2289 9 -1 1 -7
2761 -13 6132 -6 3372 -14 7146 -17 8389 l-7 2258 2279 -7 c1254 -4 2280 -8
2281 -9z m-24899 -9852 l632 -6 0 -1010 0 -1009 -837 6 c-841 6 -1123 12
-1123 24 0 3 -25 452 -55 996 -30 545 -55 995 -55 1000 0 11 291 10 1438 -1z"/>
<path d="M24595 28550 c-473 -3 -860 -6 -860 -8 0 -1 1 -607 3 -1347 2 -910
-1 -1345 -8 -1345 -14 0 -13 -43 1 -57 18 -18 26 -3895 9 -3928 -10 -18 -10
-28 -1 -38 8 -11 13 -1053 17 -4153 4 -2276 9 -4389 13 -4694 l6 -555 1020 2
c561 1 1232 5 1490 8 259 3 478 5 487 5 15 0 16 265 17 3983 0 3070 3 5841 8
6727 0 8 -2 904 -4 1990 -3 1538 -1 1980 9 1998 9 18 9 27 0 43 -10 15 -12
176 -12 689 1 369 -2 675 -5 680 -6 10 -501 10 -2190 0z m2125 -1386 c0 -815
-4 -1323 -9 -1319 -5 3 -12 1 -15 -4 -3 -5 1 -11 9 -15 13 -5 15 -163 15
-1321 l0 -1315 -1450 0 -1450 0 0 758 c0 417 -3 1306 -7 1975 -6 1131 -5 1217
10 1217 21 0 22 16 2 24 -13 5 -15 87 -15 661 l0 655 908 3 c499 1 1153 3
1455 5 l547 2 0 -1326z m0 -4664 l0 -620 -1450 0 -1450 0 0 620 0 620 1450 0
1450 0 0 -620z m0 -1360 l0 -670 -885 0 -885 0 0 363 c0 200 3 398 6 440 l7
77 101 0 c119 0 150 15 110 54 -13 14 -51 16 -259 16 -221 0 -245 -2 -254 -17
-6 -11 -6 -24 0 -35 8 -16 24 -18 117 -18 l107 0 -3 -437 c-2 -241 -5 -439 -6
-441 -2 -1 -240 1 -530 4 l-526 7 0 664 0 663 1450 0 1450 0 0 -670z m-1337
-740 l1337 0 0 -1272 c0 -700 -4 -1278 -8 -1283 -5 -8 -457 -10 -1444 -7
l-1438 4 0 727 c0 400 -3 979 -7 1286 l-6 558 114 -6 c63 -4 716 -7 1452 -7z
m838 -2637 l486 -6 5 -1291 c4 -710 5 -1292 4 -1294 -2 -1 -652 1 -1444 5
l-1442 6 0 1294 0 1293 953 0 c523 0 1171 -3 1438 -7z m-393 -2660 l892 -6 0
-1292 0 -1292 -392 -7 c-216 -3 -864 -9 -1440 -12 l-1048 -7 0 335 c0 184 -3
774 -7 1311 l-6 977 554 0 c305 0 956 -3 1447 -7z"/>
<path d="M24777 22823 c-4 -3 -7 -12 -7 -20 0 -11 152 -13 870 -13 l870 0 0
-307 0 -306 -422 6 c-232 4 -523 7 -647 7 l-226 0 3 146 3 146 448 -7 c349 -6
450 -5 456 4 4 7 3 16 -1 21 -5 4 -219 11 -476 15 l-466 7 -4 -174 c-2 -110 0
-177 7 -184 7 -9 197 -13 685 -15 l675 -4 3 343 2 342 -883 0 c-486 0 -887 -3
-890 -7z"/>
<path d="M13983 27310 c-2507 -4 -3215 -8 -3224 -17 -10 -10 -10 -335 -2
-1513 9 -1274 12 -1504 24 -1516 21 -20 9376 -22 9396 -1 11 10 13 295 13
1526 0 832 -2 1517 -5 1522 -4 5 -598 8 -1498 7 -821 -2 -2937 -5 -4704 -8z
m4807 -1525 l0 -1465 -640 0 -640 0 0 643 c0 353 3 1010 7 1459 l6 817 31 4
c17 2 302 5 634 5 l602 2 0 -1465z m1330 0 l0 -1465 -630 0 -630 0 0 1465 0
1465 630 0 630 0 0 -1465z m-2673 763 c-4 -380 -7 -1037 -7 -1460 l0 -768
-3299 0 -3298 0 -7 318 c-3 174 -9 829 -12 1454 l-7 1137 109 4 c60 1 1553 4
3318 5 l3209 2 -6 -692z"/>
<path d="M9565 21022 c-7 -5 -8 -2656 -5 -7937 l5 -7930 835 -6 c1682 -13
3815 -18 3829 -10 12 8 12 1104 -3 7938 -9 4360 -19 7934 -21 7941 -4 9 -476
12 -2317 12 -1272 0 -2317 -4 -2323 -8z m4595 -1079 c0 -571 7 -3659 15 -6863
8 -3204 15 -6292 15 -6863 l0 -1038 -1092 5 c-601 4 -1632 9 -2291 12 l-1198
6 1 7875 c1 4331 -1 7877 -4 7881 -3 3 -6 9 -6 14 0 4 1026 8 2280 8 l2280 0
0 -1037z"/>
<path d="M10232 20528 c-9 -12 -13 -481 -15 -2024 -2 -1105 -4 -2016 -3 -2024
1 -54 -5 -6986 -8 -8645 -1 -1117 -6 -2037 -10 -2046 -4 -10 -1 -22 8 -31 13
-14 156 -17 1118 -24 607 -4 1297 -8 1533 -8 l430 -1 3 688 c2 595 4 691 17
703 19 19 19 29 0 48 -13 13 -15 540 -12 4658 2 2554 4 4648 4 4653 0 6 -3
917 -6 2025 l-6 2015 -220 6 c-121 4 -805 10 -1520 14 -1128 6 -1303 5 -1313
-7z m2756 -74 l232 -6 0 -1969 0 -1970 -1197 7 c-659 4 -1199 8 -1201 9 -2 2
-6 201 -9 444 l-6 441 410 0 c225 0 640 -3 921 -7 l512 -6 0 -263 c0 -256 1
-263 20 -269 48 -15 50 -2 50 294 0 206 -3 282 -12 294 -12 16 -86 18 -984 24
-729 5 -973 3 -978 -5 -9 -15 -8 -591 0 -799 l7 -153 -231 0 -232 0 0 1976 0
1976 1233 -6 c677 -3 1337 -9 1465 -12z m-490 -4011 l722 -6 0 -1289 0 -1288
-1465 0 -1465 0 0 1295 0 1295 743 0 c409 0 1068 -3 1465 -7z m722 -3628 l0
-975 -1470 0 -1470 0 0 623 c0 342 3 781 7 975 l6 352 1464 0 1463 0 0 -975z
m0 -2001 l0 -957 -857 7 c-472 3 -1134 9 -1470 12 l-613 7 0 943 0 944 1470 0
1470 0 0 -956z m-872 -1020 l872 -7 0 -1310 0 -1310 -187 6 c-104 4 -765 7
-1470 7 l-1283 0 0 1316 0 1317 598 -7 c328 -3 990 -9 1470 -12z m480 -2691
l392 -6 0 -655 0 -655 -562 6 c-310 4 -971 10 -1470 14 l-908 6 0 649 0 648
1078 0 c593 0 1255 -3 1470 -7z"/>
<path d="M10571 16176 c-8 -9 -9 -112 -3 -357 l7 -344 559 -3 c441 -2 561 0
568 10 10 17 10 319 0 335 -12 19 -691 32 -702 13 -23 -36 -4 -40 209 -40 115
0 263 -3 329 -7 l122 -6 0 -129 0 -128 -520 0 -520 0 0 158 c0 88 -3 227 -7
310 l-6 152 914 0 c663 0 918 3 926 11 6 6 9 18 6 25 -8 21 -1865 20 -1882 0z"/>
<path d="M7049 19636 c-2 -2 -863 -6 -1914 -9 l-1910 -5 -5 -7886 c-3 -4337
-3 -7891 -2 -7896 3 -7 731 -10 2158 -10 l2154 0 0 1818 c0 999 5 4550 10
7891 7 4460 7 6078 -1 6088 -9 10 -62 13 -249 13 -130 0 -239 -2 -241 -4z
m447 -2493 c-3 -1347 -9 -4881 -12 -7855 l-7 -5408 -2103 0 -2104 0 0 7845 0
7845 388 1 c1436 6 3553 15 3686 17 l159 2 -7 -2447z"/>
<path d="M3639 19203 c-12 -15 -13 -165 -8 -998 4 -539 7 -3906 8 -7483 1
-4699 4 -6509 12 -6524 l11 -20 1507 7 c828 4 1509 10 1514 14 4 4 7 1358 7
3009 0 2226 3 3008 12 3026 8 19 8 29 0 39 -9 10 -12 614 -12 2358 0 1289 -3
2772 -6 3294 -6 752 -5 955 5 974 9 17 10 26 2 34 -8 8 -11 332 -11 1123 0
877 -3 1114 -12 1122 -9 7 -510 12 -1491 17 -813 4 -1480 12 -1483 16 -9 15
-40 10 -55 -8z m2574 -83 l397 0 0 -1087 0 -1088 -1447 3 c-796 1 -1448 4
-1449 5 -1 1 -4 492 -6 1091 l-3 1089 1055 -6 c580 -4 1234 -7 1453 -7z m397
-2748 c0 -280 3 -766 7 -1080 l6 -572 -1304 0 c-717 0 -1373 -3 -1456 -7
l-153 -6 0 1086 0 1087 1450 0 1450 0 0 -508z m10 -2257 c0 -409 -3 -535 -12
-535 -9 0 -9 -3 0 -12 9 -9 12 -143 12 -540 l0 -528 -1455 0 -1455 0 0 1070 0
1070 263 3 c144 1 799 3 1455 5 l1192 2 0 -535z m0 -2754 l0 -1068 -277 -7
c-153 -3 -798 -8 -1433 -11 -635 -4 -1165 -8 -1177 -11 l-23 -4 0 529 c0 414
3 531 13 535 10 5 10 7 0 12 -10 4 -13 124 -13 550 l0 544 1455 0 1455 0 0
-1069z m0 -2223 l0 -1081 -772 6 c-425 4 -1080 7 -1455 7 l-683 0 0 1060 c0
583 1 1061 3 1061 1 1 614 7 1362 14 748 6 1402 12 1453 13 l92 2 0 -1082z
m-872 -1145 l872 -6 0 -1109 0 -1108 -667 0 c-368 0 -1022 3 -1455 7 l-788 6
0 524 c0 411 3 523 13 524 10 0 10 2 0 6 -10 4 -13 130 -13 584 l0 579 583 0
c321 0 976 -3 1455 -7z m869 -2297 c1 -1 3 -324 5 -717 l3 -716 -1448 -8
c-796 -4 -1451 -4 -1455 -1 -3 4 -8 333 -10 730 l-4 724 1453 -5 c800 -3 1455
-6 1456 -7z"/>
<path d="M4077 5393 c-6 -6 -3 -255 7 -668 l4 -140 618 0 619 0 0 215 0 215
-468 3 c-443 2 -468 1 -465 -15 3 -17 33 -18 451 -21 l447 -2 0 -180 0 -180
-579 0 -579 0 -6 63 c-3 34 -7 200 -10 370 l-4 307 882 0 c486 0 886 3 889 7
4 3 2 12 -4 20 -9 11 -169 13 -904 13 -490 0 -895 -3 -898 -7z"/>
<path d="M24299 8846 c-4 -3 -4887 -21 -5699 -21 -179 0 -335 4 -347 9 -16 6
-24 3 -30 -11 -6 -11 -8 -635 -5 -1546 3 -1237 7 -1530 17 -1541 11 -11 641
-12 3482 -9 1907 3 3725 8 4038 11 l570 7 0 1550 0 1550 -1011 3 c-556 1
-1012 0 -1015 -2z m1961 -1549 l0 -1484 -832 -6 c-458 -4 -1643 -7 -2634 -7
l-1801 0 -6 197 c-4 108 -7 774 -7 1480 l0 1283 243 1 c649 4 3392 15 4165 17
l872 2 0 -1483z m-5348 -14 c2 -813 3 -1479 3 -1479 0 -1 -591 -5 -1312 -9
l-1313 -7 0 1398 c0 770 -3 1436 -7 1481 l-6 83 424 3 c233 1 825 3 1316 5
l892 2 3 -1477z"/>
<path d="M9830 4081 l0 -601 -245 0 c-214 0 -246 -2 -252 -16 -3 -8 -2 -19 3
-24 5 -4 1942 -9 4304 -11 l4295 -4 5 92 5 91 148 155 147 156 -2 293 -3 293
-435 0 -435 0 -3 -517 -2 -518 -1334 0 c-733 0 -1373 3 -1423 6 l-89 7 4 587
5 587 -264 7 c-145 3 -1201 9 -2346 12 l-2083 7 0 -602z m2197 542 l593 -6 2
-381 3 -381 23 -3 22 -3 0 385 0 386 568 0 c313 0 718 -3 900 -7 l332 -6 0
-427 c0 -235 -3 -488 -7 -563 l-6 -137 -2289 0 -2288 0 0 575 0 575 778 0
c427 0 1044 -3 1369 -7z m6163 -425 l-1 -263 -149 -155 -150 -155 0 -77 0 -78
-240 0 -240 0 0 495 0 495 390 0 390 0 0 -262z"/>
</g>
</svg>
